#!OML:ASF H:\ManfredETheater\Project 1\Capture day 1\Session 1\subject.ASF
:FULLY-SPECIFIED
:DEGREES
325
root -14.9126 16.0117 -41.5471 -154.877 -25.7467 175.809
lowerback 13.0575 -3.62447 -1.19689
upperback -0.91412 -4.85204 2.56474
thorax -7.97393 -2.26282 4.35982
lowerneck -17.724 1.35303 -1.68517
upperneck -6.66484 0.994748 0.846465
head 0.815859 0.0679754 0.606566
rclavicle 2.5842e-015 -1.23246e-014
rhumerus -69.3437 1.05574 -81.851
rradius 80.9421
rwrist -15.3907
rhand -29.1136 7.46061
rfingers 7.12502
rthumb -2.46144 -22.5049
lclavicle 2.5842e-015 -1.23246e-014
lhumerus -36.7946 -24.5714 102.585
lradius 121.611
lwrist 10.646
lhand -20.15 -11.0812
lfingers 7.12502
lthumb 6.19496 18.8083
rfemur -72.5132 -10.0522 25.2501
rtibia 74.9273
rfoot -17.4648 -7.9036
rtoes -30.0616
lfemur -1.99524 -8.60496 -25.161
ltibia 32.33
lfoot -33.8596 -6.76015
ltoes -3.99876
326
root -15.0019 15.9794 -41.8033 -154.639 -25.6623 176.097
lowerback 12.9439 -3.62601 -0.904374
upperback -1.02252 -4.79789 2.70944
thorax -8.04223 -2.24376 4.33774
lowerneck -17.7385 1.37814 -1.71747
upperneck -6.76349 1.01894 0.845442
head 0.784808 0.074143 0.61275
rclavicle -6.54002e-014 1.59028e-014
rhumerus -69.9117 0.988438 -81.752
rradius 81.7598
rwrist -15.1439
rhand -29.2581 7.55912
rfingers 7.12502
rthumb -2.60101 -22.4048
lclavicle -6.54002e-014 1.59028e-014
lhumerus -37.4106 -25.0792 103.131
lradius 122.894
lwrist 10.9698
lhand -19.8013 -11.6331
lfingers 7.12502
lthumb 6.5316 18.2461
rfemur -72.0197 -9.8335 25.6205
rtibia 75.6586
rfoot -18.3131 -8.42194
rtoes -29.9635
lfemur -1.77376 -8.93388 -24.8901
ltibia 32.8167
lfoot -32.3569 -7.28952
ltoes -5.98891
327
root -15.0934 15.9523 -42.0649 -154.35 -25.5015 176.335
lowerback 12.8103 -3.60095 -0.663036
upperback -1.14957 -4.71844 2.81662
thorax -8.11991 -2.21054 4.299
lowerneck -17.7663 1.40217 -1.74007
upperneck -6.85544 1.03998 0.834841
head 0.758296 0.0783146 0.614151
rclavicle 1.92821e-014 -1.63003e-014
rhumerus -70.2858 0.829602 -81.6715
rradius 82.3497
rwrist -15.0001
rhand -29.4103 7.5903
rfingers 7.12502
rthumb -2.74798 -22.3717
lclavicle 1.92821e-014 -1.63003e-014
lhumerus -38.1322 -25.5383 103.689
lradius 123.86
lwrist 11.1954
lhand -19.272 -12.195
lfingers 7.12502
lthumb 7.04255 17.6678
rfemur -71.4152 -9.54502 25.8586
rtibia 76.2451
rfoot -19.4376 -9.03785
rtoes -30.4056
lfemur -1.72425 -9.18302 -24.6627
ltibia 33.4867
lfoot -30.5256 -8.01287
ltoes -8.02181
328
root -15.1869 15.9304 -42.3304 -154.018 -25.2793 176.519
lowerback 12.6744 -3.55609 -0.468513
upperback -1.28957 -4.62198 2.88687
thorax -8.21048 -2.16732 4.24452
lowerneck -17.8018 1.42433 -1.75784
upperneck -6.96111 1.05551 0.816426
head 0.728582 0.0785662 0.611899
rclavicle 3.08116e-014 1.82882e-014
rhumerus -70.4447 0.591608 -81.6164
rradius 82.7158
rwrist -14.9599
rhand -29.5881 7.54395
rfingers 7.12502
rthumb -2.91968 -22.4158
lclavicle 3.08116e-014 1.82882e-014
lhumerus -38.9453 -25.9187 104.247
lradius 124.486
lwrist 11.2626
lhand -18.6091 -12.7068
lfingers 7.12502
lthumb 7.68242 17.1336
rfemur -70.7247 -9.21456 25.9727
rtibia 76.6854
rfoot -20.7429 -9.72587
rtoes -31.3304
lfemur -1.87771 -9.34225 -24.4708
ltibia 34.3946
lfoot -28.314 -8.94019
ltoes -10.0114
329
root -15.2822 15.9134 -42.5994 -153.657 -25.0025 176.654
lowerback 12.5479 -3.49036 -0.317798
upperback -1.43025 -4.50653 2.92389
thorax -8.3073 -2.11355 4.17637
lowerneck -17.8576 1.44569 -1.77784
upperneck -7.09496 1.06562 0.784213
head 0.692865 0.0737771 0.605314
rclavicle -1.15295e-014 1.90833e-014
rhumerus -70.3644 0.278128 -81.5845
rradius 82.8714
rwrist -15.0239
rhand -29.8138 7.44038
rfingers 7.12502
rthumb -3.13766 -22.5163
lclavicle -1.15295e-014 1.90833e-014
lhumerus -39.8236 -26.2023 104.794
lradius 124.738
lwrist 11.1489
lhand -17.8464 -13.0833
lfingers 7.12502
lthumb 8.41861 16.7289
rfemur -69.9597 -8.85697 25.9841
rtibia 76.9818
rfoot -22.0919 -10.4655
rtoes -32.4122
lfemur -2.2447 -9.40788 -24.3078
ltibia 35.546
lfoot -25.5973 -10.097
ltoes -11.6425
330
root -15.3793 15.9003 -42.8711 -153.285 -24.6777 176.761
lowerback 12.4211 -3.40343 -0.197034
upperback -1.56697 -4.36931 2.93513
thorax -8.40036 -2.04876 4.09312
lowerneck -17.8888 1.46498 -1.80768
upperneck -7.28328 1.06952 0.745311
head 0.635048 0.0640055 0.597521
rclavicle -1.88845e-014 3.1408e-014
rhumerus -70.0468 -0.0928124 -81.5748
rradius 82.8291
rwrist -15.1759
rhand -30.0824 7.26678
rfingers 7.12502
rthumb -3.39706 -22.6859
lclavicle -1.88845e-014 3.1408e-014
lhumerus -40.7582 -26.364 105.321
lradius 124.595
lwrist 10.8604
lhand -17.0785 -13.3752
lfingers 7.12502
lthumb 9.15958 16.4059
rfemur -69.1344 -8.48266 25.934
rtibia 77.1594
rfoot -23.4237 -11.1967
rtoes -33.3705
lfemur -2.84915 -9.37252 -24.1546
ltibia 36.9743
lfoot -22.269 -11.4329
ltoes -12.6427
331
root -15.4777 15.891 -43.1447 -152.926 -24.3376 176.868
lowerback 12.3083 -3.30067 -0.076334
upperback -1.69356 -4.21244 2.93206
thorax -8.49221 -1.97525 3.99148
lowerneck -17.8966 1.48287 -1.83933
upperneck -7.52747 1.0661 0.693716
head 0.554997 0.0482771 0.585221
rclavicle 8.15017e-015 2.42517e-014
rhumerus -69.4884 -0.515481 -81.5872
rradius 82.6015
rwrist -15.371
rhand -30.3844 7.0696
rfingers 7.12502
rthumb -3.68865 -22.8782
lclavicle 8.15017e-015 2.42517e-014
lhumerus -41.7282 -26.3949 105.812
lradius 124.046
lwrist 10.4439
lhand -16.3806 -13.5448
lfingers 7.12502
lthumb 9.83297 16.2056
rfemur -68.2475 -8.1173 25.8749
rtibia 77.2405
rfoot -24.7228 -11.9606
rtoes -34.2661
lfemur -3.70127 -9.27275 -23.9816
ltibia 38.71
lfoot -18.3202 -12.8599
ltoes -12.7973
